<?xml version="1.0" encoding="UTF-8" standalone="no"?>
<svg
   xmlns:dc="http://purl.org/dc/elements/1.1/"
   xmlns:cc="http://creativecommons.org/ns#"
   xmlns:rdf="http://www.w3.org/1999/02/22-rdf-syntax-ns#"
   xmlns:svg="http://www.w3.org/2000/svg"
   xmlns="http://www.w3.org/2000/svg"
   xmlns:sodipodi="http://sodipodi.sourceforge.net/DTD/sodipodi-0.dtd"
   xmlns:inkscape="http://www.inkscape.org/namespaces/inkscape"
   version="1.1"
   id="svg883"
   width="250"
   height="250"
   viewBox="0 0 250 250"
   sodipodi:docname="image-not-found.svg"
   inkscape:version="1.0.1 (3bc2e813f5, 2020-09-07)">
  <metadata
     id="metadata889">
    <rdf:RDF>
      <cc:Work
         rdf:about="">
        <dc:format>image/svg+xml</dc:format>
        <dc:type
           rdf:resource="http://purl.org/dc/dcmitype/StillImage" />
        <dc:title></dc:title>
      </cc:Work>
    </rdf:RDF>
  </metadata>
  <defs
     id="defs887" />
  <sodipodi:namedview
     pagecolor="#ffffff"
     bordercolor="#666666"
     borderopacity="1"
     objecttolerance="10"
     gridtolerance="10"
     guidetolerance="10"
     inkscape:pageopacity="0"
     inkscape:pageshadow="2"
     inkscape:window-width="1920"
     inkscape:window-height="1017"
     id="namedview885"
     showgrid="false"
     fit-margin-top="0"
     fit-margin-left="0"
     fit-margin-right="0"
     fit-margin-bottom="0"
     inkscape:zoom="2.5499999"
     inkscape:cx="121.07843"
     inkscape:cy="127.35294"
     inkscape:window-x="1912"
     inkscape:window-y="-8"
     inkscape:window-maximized="1"
     inkscape:current-layer="g891"
     inkscape:pagecheckerboard="true" />
  <g
     inkscape:groupmode="layer"
     inkscape:label="Image"
     id="g891"
     transform="translate(-41.66667,-37.745101)">
    <g
       id="g1456"
       transform="matrix(0.74999999,0,0,0.74999999,41.66667,37.745101)">
      <path
         style="fill:none;stroke-width:1.33333"
         d="M 0,166.66667 V 0 H 166.66667 333.33334 V 166.66667 333.33334 H 166.66667 0 Z m 199.03538,157.2582 c 63.78864,-12.9993 113.3674,-63.2732 125.79463,-127.55836 3.0127,-15.58455 3.0127,-43.81513 0,-59.39968 C 312.40278,72.681669 262.82402,22.407768 199.03538,9.4084725 c -18.57663,-3.7856773 -46.16079,-3.7856773 -64.73742,0 C 70.509325,22.407768 20.930555,72.681669 8.5033396,136.96683 c -3.0127116,15.58455 -3.0127116,43.81513 0,59.39968 12.3487034,63.87903 61.6711214,114.19619 124.9591804,127.4794 17.88576,3.75395 47.36519,3.78944 65.57286,0.0789 z M 145.33334,307.14733 C 143.5,306.79579 136.6,305.09237 130,303.36193 81.376262,290.61337 42.457189,251.35199 29.092826,201.56724 24.910354,185.98675 24.240014,155.3943 27.714554,138.66667 32.251291,116.82525 43.299596,93.240087 55.821138,78.666668 l 4.009621,-4.666667 99.892821,99.787279 99.89281,99.78729 -6.46449,5.10988 c -14.44746,11.42005 -32.02354,20.0732 -51.76904,25.48718 -7.7298,2.11942 -14.97388,2.85464 -31.38286,3.18515 -11.73333,0.23633 -22.83333,0.14208 -24.66666,-0.20945 z m 45.81173,-88.63718 -6.82319,-6.82319 -4.99438,1.64831 c -3.06376,1.01112 -9.18211,1.41732 -15.82762,1.05079 -17.78012,-0.98067 -31.12034,-9.53356 -39.5573,-25.3616 -3.71949,-6.9779 -4.54764,-10.12139 -5.01597,-19.03968 -0.30853,-5.87504 0.0993,-13.07315 0.90628,-15.99579 l 1.46724,-5.31389 -14.96165,-15.00422 C 91.945257,119.23671 91.160719,118.66667 85.688418,118.66667 H 80.000002 V 172 225.33334 h 58.984138 58.98412 z m -17.81173,-16.82784 c 0,-1.42335 -40.4046,-41.68231 -41.83308,-41.68231 -0.65928,0 -0.88748,3.87694 -0.50712,8.61542 1.57641,19.63874 16.34693,33.55772 36.00686,33.931 3.48334,0.0661 6.33334,-0.32271 6.33334,-0.86411 z M 173.19302,159.20922 73.719352,59.756881 80.182644,54.647944 C 94.80193,43.092062 112.2373,34.55789 132.6341,28.974285 c 9.10102,-2.491395 14.18469,-2.932218 34.03257,-2.951086 21.26808,-0.02021 24.45447,0.292768 36,3.536143 50.31476,14.134444 88.17862,52.236068 101.56894,102.206748 3.92705,14.65515 4.83958,44.7695 1.84026,60.73045 -2.659,14.14998 -8.26005,30.00022 -14.62021,41.37325 -5.30559,9.48727 -16.28885,24.79815 -17.78623,24.79432 -0.55152,-10e-4 -45.76591,-44.75611 -100.47641,-99.45489 z m 80.14032,12.12412 v -52.66667 h -19.34426 -19.34424 l -4.94813,-10 -4.94813,-10.000001 h -38.3743 c -21.10585,0 -38.37428,0.464076 -38.37428,1.03128 0,0.567201 4.73249,5.736011 10.51666,11.486251 l 10.51664,10.45496 4.98348,-1.64469 c 3.05228,-1.00735 9.18154,-1.41315 15.81668,-1.04719 17.78012,0.98067 31.12033,9.53356 39.5573,25.3616 3.7195,6.9779 4.54764,10.12139 5.01598,19.03968 0.30852,5.87504 -0.0997,13.0748 -0.90731,15.99947 l -1.46825,5.31757 19.63441,19.6672 C 242.46451,215.14976 251.7575,224 252.31667,224 c 0.55916,0 1.01667,-23.7 1.01667,-52.66666 z m -26.66667,-26 C 225.01587,143.68254 224,140.8889 224,138 c 0,-2.88889 1.01587,-5.68254 2.66667,-7.33333 C 228.31747,129.01588 231.11111,128 234,128 c 2.8889,0 5.68254,1.01588 7.33334,2.66667 C 242.98414,132.31746 244,135.11111 244,138 c 0,2.8889 -1.01586,5.68254 -2.66666,7.33334 C 239.68254,146.98414 236.8889,148 234,148 c -2.88889,0 -5.68253,-1.01586 -7.33333,-2.66666 z m -24.00744,22.33333 C 202.63342,147.99182 188.32208,132.575 168.61542,130.99314 163.87694,130.61278 160,130.82668 160,131.46849 c 0,1.4295 40.22835,41.86485 41.65054,41.86485 0.55888,0 1.01278,-2.55 1.00869,-5.66667 z"
         id="path1462" />
      <path
         style="fill:#989898;stroke-width:1.33333"
         d="M 133.46252,323.84591 C 70.174461,310.5627 20.852043,260.24554 8.5033396,196.36651 5.490628,180.78196 5.490628,152.55138 8.5033396,136.96683 20.930555,72.681669 70.509325,22.407768 134.29796,9.4084725 c 18.57663,-3.7856773 46.16079,-3.7856773 64.73742,0 63.78864,12.9992955 113.3674,63.2731965 125.79463,127.5583575 3.0127,15.58455 3.0127,43.81513 0,59.39968 -12.42723,64.28516 -62.00599,114.55906 -125.79463,127.55836 -18.20767,3.71048 -47.6871,3.67499 -65.57286,-0.0789 z m 67.92034,-19.67428 c 19.7455,-5.41398 37.32158,-14.06713 51.76904,-25.48718 l 6.46449,-5.10988 -99.89281,-99.78729 -99.892821,-99.787279 -4.009621,4.666667 c -6.789566,7.902156 -17.001276,25.440712 -21.342164,36.655042 -7.227837,18.67253 -9.486988,33.11033 -8.764407,56.01163 0.939542,29.77762 6.898178,48.96936 22.626781,72.87693 19.186247,29.16322 48.630758,50.49214 81.658652,59.15166 17.25824,4.5249 16.65836,4.46498 40,3.99485 16.40898,-0.33051 23.65306,-1.06573 31.38286,-3.18515 z m 79.35636,-53.74644 c 20.0556,-27.24361 28.10169,-53.89279 26.89919,-89.09185 -0.99518,-29.13014 -7.0902,-48.56473 -22.64642,-72.210266 -19.231,-29.231231 -47.71749,-49.841687 -82.32532,-59.563732 -11.54553,-3.243375 -14.73192,-3.556361 -36,-3.536143 -19.84788,0.01887 -24.93155,0.459691 -34.03257,2.951086 -20.3968,5.583605 -37.83217,14.117777 -52.451456,25.673659 l -6.463292,5.108937 99.473668,99.452339 c 54.7105,54.69878 99.92489,99.45349 100.47641,99.45489 0.55151,0.001 3.73292,-3.7061 7.06979,-8.23892 z"
         id="path1460" />
      <path
         style="fill:#656565;stroke-width:1.33333"
         d="m 80.000002,172 v -53.33333 h 5.688416 c 5.472301,0 6.256839,0.57004 20.650062,15.00421 l 14.96165,15.00422 -1.46724,5.31389 c -0.80698,2.92264 -1.21481,10.12075 -0.90628,15.99579 0.93654,17.83428 10.16968,31.73858 26.69219,40.19612 8.38659,4.29292 25.42714,5.88753 33.7087,3.15437 l 4.99438,-1.64831 6.82319,6.82319 6.82319,6.82319 H 138.98414 80.000002 Z m 151.665588,32.3328 -19.63441,-19.6672 1.46825,-5.31757 c 0.80753,-2.92467 1.21583,-10.12443 0.90731,-15.99947 -0.93655,-17.83428 -10.1697,-31.73858 -26.6922,-40.19611 -8.38076,-4.28994 -25.42738,-5.88746 -33.69776,-3.15798 l -4.98348,1.64469 -10.51664,-10.45496 C 132.73249,105.43396 128,100.26515 128,99.697949 c 0,-0.567204 17.26843,-1.03128 38.37428,-1.03128 h 38.3743 l 4.94813,10.000001 4.94813,10 h 19.34424 19.34426 v 52.66667 C 253.33334,200.3 252.87583,224 252.31667,224 c -0.55917,0 -9.85216,-8.85024 -20.65108,-19.6672 z m 9.66775,-58.99946 C 242.98414,143.68254 244,140.8889 244,138 c 0,-2.88889 -1.01586,-5.68254 -2.66666,-7.33333 C 239.68254,129.01588 236.8889,128 234,128 c -2.88889,0 -5.68253,1.01588 -7.33333,2.66667 C 225.01587,132.31746 224,135.11111 224,138 c 0,2.8889 1.01587,5.68254 2.66667,7.33334 1.6508,1.6508 4.44444,2.66666 7.33333,2.66666 2.8889,0 5.68254,-1.01586 7.33334,-2.66666 z m -84.84706,55.88125 C 142.69303,197.21699 132.2133,183.81612 130.99314,168.61542 130.61278,163.87694 130.84098,160 131.50026,160 c 1.42848,0 41.83308,40.25896 41.83308,41.68231 0,1.34677 -11.70788,1.02173 -16.84706,-0.46772 z M 180.3172,152.98436 C 169.14275,141.79243 160,132.11029 160,131.46849 c 0,-0.64181 3.87694,-0.85571 8.61542,-0.47535 19.70666,1.58186 34.018,16.99868 34.04381,36.67353 0.004,3.11667 -0.44981,5.66667 -1.00869,5.66667 -0.55887,0 -10.15887,-9.15704 -21.33334,-20.34898 z"
         id="path1458" />
    </g>
  </g>
</svg>
